<svg xmlns="http://www.w3.org/2000/svg" viewBox="0 0 24 51" height="51">
  <g transform="scale(-1,1) translate(-24,0)">
    <path d="M17.6694 4.49559C14.0677 6.86258 16.4448 21.7761 11.4085 23.6299C5.33088 24.4694 10.6066 3.87812 6.02648 2.90024C1.72929 7.14051 1.10207 31.0515 2.52895 29.1686C4.70838 27.2264 7.7987 25.3978 10.2003 25.4656C12.6019 25.5334 18.0373 27.379 19.6538 27.8527C21.6813 24.3176 19.9845 4.85859 17.6691 4.49553L17.6694 4.49559Z" fill="#fff" stroke="#bdbdbd" stroke-width="1"/>
    <path d="M11.1408 20.8135C10.1626 20.2532 9.81451 16.364 10.0722 12.0774C10.3164 8.01526 11.0933 3.59583 12.7886 1.31345C14.2243 0.425865 13.9539 5.40465 13.5949 10.4881C13.2457 15.4313 12.6289 20.1191 11.1408 20.8135Z" fill="#e0e0e0"/>
    <path d="M21.6879 48.6123C20.0633 51.6631 9.91888 49.3678 8.06779 48.9422C1.99021 49.7817 1.0053 49.1347 0.928449 46.7889C0.585528 41.9118 0.397662 34.4819 1.82454 32.599C4.00397 30.6569 6.6549 28.3722 9.38588 28.0982C12.1171 27.8242 17.4422 29.5557 19.0594 30.0294C20.6765 30.5033 22.7534 35.3692 22.5666 38.4693C22.3799 41.5692 23.3125 45.5616 21.6879 48.6125V48.6123Z" fill="#fff" stroke="#bdbdbd" stroke-width="1"/>
  </g>
</svg>
