<svg xmlns="http://www.w3.org/2000/svg" viewBox="0 0 20 54" height="54">
  <path d="M9.34247 52.5088C6.80779 52.5347 7.2125 44.3439 5.82743 37.141C4.32788 29.3431 1.92153 22.7755 2.86662 21.7897C4.36876 23.1664 5.42577 24.1491 7.32045 23.9918C10.7403 23.7033 16.081 23.4736 17.4126 21.6733C18.4156 24.1492 15.5417 35.8314 13.6092 43.2331C11.7294 50.4334 11.67 52.5826 9.34218 52.5084L9.34247 52.5088Z" fill="#fff" stroke="#bdbdbd" stroke-width="1"/>
  <path d="M18.4912 5.66217C17.8174 3.98698 12.0232 0.48244 10.1719 0.90811C8.81431 1.17789 2.06259 3.4628 1.50475 5.12825C0.571254 7.91462 1.87463 16.5687 2.29825 17.7347C2.94606 19.595 5.86707 21.7864 7.76175 21.6292C11.1815 21.3406 16.833 20.9497 17.7764 18.3437C18.6771 15.4049 19.1648 7.33722 18.4911 5.66171L18.4912 5.66217Z" fill="#fff" stroke="#bdbdbd" stroke-width="1"/>
</svg>
