<svg xmlns="http://www.w3.org/2000/svg" viewBox="0 0 24 52" height="52">
  <path d="M20.5997 37.9137C20.1922 42.6328 19.1171 51.6497 17.0544 50.9057C13.1191 49.4873 18.6221 30.4172 12.8244 30.9837C8.5931 31.9786 12.3802 46.8094 8.50644 48.6618C5.91214 49.9023 4.972 32.8673 4.50446 29.5573C4.12808 26.8935 4.28677 20.0276 5.10584 21.458C5.57709 22.1352 7.23897 22.8334 8.16159 22.6125C12.0227 22.1871 13.9177 23.0534 17.0838 22.2231C19.2345 21.6589 19.5164 21.8429 20.4288 20.3747C22.1838 17.5165 21.0073 33.1938 20.5998 37.9129L20.5997 37.9137Z" fill="#fff" stroke="#bdbdbd" stroke-width="1"/>
  <path d="M22.3694 2.69336C20.2532 0.482191 18.2249 1.88786 16.1056 1.34141C12.7917 0.486959 9.90645 1.16088 8.84635 1.40435C7.48878 1.67407 3.81976 0.226193 2.27609 2.80393C0.768386 5.32145 2.38957 7.64902 2.7788 10.9377C3.11954 13.8168 2.63879 15.3493 3.45786 16.7802C4.26097 18.3181 6.09465 20.1872 8.06705 20.03C11.9281 19.6046 13.8231 20.4708 16.9892 19.6405C19.14 19.0764 20.7422 17.0846 21.6547 15.6162C22.0893 11.1463 24.4855 4.90393 22.3693 2.6931L22.3694 2.69336Z" fill="#fff" stroke="#bdbdbd" stroke-width="1"/>
</svg>
