<svg xmlns="http://www.w3.org/2000/svg" viewBox="0 0 22 47" height="47">
  <path d="M17.1012 4.10639C15.2569 4.07989 14.8879 20.0195 10.6204 22.1012C4.76249 18.9519 8.61034 7.1361 6.00729 2.39708C1.9298 -0.428511 1.0829 28.7244 1.96055 27.184C4.13998 25.2419 7.34016 24.211 10.0711 23.9369C12.8023 23.6628 15.2717 25.0525 17.6577 25.5263C19.0827 20.831 19.6894 9.95964 17.1009 4.10692L17.1012 4.10639Z" fill="#fff" stroke="#bdbdbd" stroke-width="1"/>
  <path d="M10.5868 19.3705C9.60849 18.8102 8.49154 14.0093 8.74926 9.72222C8.9934 5.66003 10.3194 3.97584 12.0148 1.69312C14.5488 -0.106228 14.1509 3.80371 13.2604 8.81655C12.3621 13.8738 12.0748 16.6244 10.5868 19.3699V19.3705Z" fill="#e0e0e0"/>
  <path d="M19.6973 43.9231C18.1825 45.7202 10.5644 45.4763 8.71336 45.0507C5.71127 46.232 1.3209 44.7873 1.24405 42.4415C0.901131 37.5645 1.15264 31.5019 2.03035 29.9616C4.20978 28.0194 7.4099 26.9884 10.1409 26.7144C12.8721 26.4404 15.3415 27.83 17.7275 28.3038C20.1134 28.7776 21.4215 32.6178 21.2348 35.7174C21.048 38.8174 21.2115 42.1259 19.697 43.9228L19.6973 43.9231Z" fill="#fff" stroke="#bdbdbd" stroke-width="1"/>
</svg>
