<svg xmlns="http://www.w3.org/2000/svg" viewBox="0 0 23 56" height="56">
  <path d="M10.4197 0.883218C5.93415 0.809214 8.81969 15.256 4.61572 28.8734C8.55256 26.7034 10.4198 27.7917 10.4198 27.7917C10.4198 27.7917 15.8401 27.3117 19.1048 32.3442C15.7842 21.5517 14.1227 1.58132 10.4198 0.88368L10.4197 0.883218Z" fill="#fff" stroke="#bdbdbd" stroke-width="1"/>
  <path d="M20.0247 53.3892C18.7297 55.8701 11.7704 54.9425 9.91931 54.5168C3.8418 55.3563 0.549922 54.8233 0.803005 48.4887L0.693158 41.4229C0.693158 41.4229 0.288564 33.7336 4.2254 31.5639C8.16224 29.3938 10.0296 30.4821 10.0296 30.4821C10.0296 30.4821 15.4498 30.0021 18.7145 35.0346C21.9792 40.0671 21.7495 44.135 21.5627 47.235C21.376 50.3349 21.3201 50.9082 20.025 53.3891L20.0247 53.3892Z" fill="#fff" stroke="#bdbdbd" stroke-width="1"/>
</svg>
