<svg xmlns="http://www.w3.org/2000/svg" viewBox="0 0 20 52" height="52">
  <path d="M9.75101 0.876965C5.89268 1.04054 5.87624 19.7032 3.93942 27.8304C3.67348 28.946 4.42592 26.72 9.53151 26.4176C9.53151 26.4176 14.4026 26.3937 16.5688 29.2606C15.876 23.2399 12.7168 4.02646 9.7508 0.876831L9.75101 0.876965Z" fill="#fff" stroke="#bdbdbd" stroke-width="1"/>
  <path d="M9.50444 51.2488C6.6122 51.0625 1.67275 47.6803 1.26663 45.4485C0.476238 43.4515 1.17839 35.302 2.71193 32.9679C5.22084 28.9744 9.94403 29.037 9.94403 29.037C9.94403 29.037 14.1561 29.1269 16.3223 31.994C18.4886 34.8611 19.6868 43.9439 18.841 46.2462C17.9148 49.617 13.4526 50.7548 9.50477 51.2487L9.50444 51.2488Z" fill="#fff" stroke="#bdbdbd" stroke-width="1"/>
</svg>
