<svg xmlns="http://www.w3.org/2000/svg" viewBox="0 0 24 51" height="51">
  <path d="M17.9849 4.28554C14.3831 6.65253 16.7602 21.5661 11.7239 23.4198C5.64631 24.2593 10.922 3.66807 6.34191 2.69019C2.04472 6.93046 1.4175 30.8414 2.84438 28.9585C5.02381 27.0164 8.11413 25.1877 10.5157 25.2556C12.9173 25.3234 18.3527 27.1689 19.9693 27.6427C21.9967 24.1075 20.2999 4.64854 17.9845 4.28547L17.9849 4.28554Z" fill="#fff" stroke="#bdbdbd" stroke-width="1"/>
  <path d="M11.4563 20.6034C10.478 20.0431 10.1299 16.1539 10.3877 11.8674C10.6318 7.80517 11.4087 3.38575 13.104 1.10336C14.5397 0.215782 14.2693 5.19457 13.9103 10.278C13.5612 15.2212 12.9443 19.9091 11.4563 20.6034Z" fill="#e0e0e0"/>
  <path d="M22.0033 48.4022C20.3787 51.453 10.2343 49.1577 8.38322 48.7321C2.30564 49.5716 1.32073 48.9246 1.24388 46.5788C0.900958 41.7018 0.713092 34.2718 2.13997 32.3889C4.3194 30.4468 6.97032 28.1621 9.70131 27.8881C12.4325 27.6141 17.7576 29.3456 19.3748 29.8194C20.9919 30.2932 23.0688 35.1591 22.882 38.2592C22.6953 41.3592 23.628 45.3515 22.0033 48.4024V48.4022Z" fill="#fff" stroke="#bdbdbd" stroke-width="1"/>
</svg>
