<svg xmlns="http://www.w3.org/2000/svg" viewBox="0 0 23 51" height="51">
  <g transform="scale(-1,1) translate(-23,0)">
    <path d="M15.8921 49.3166C12.5782 48.4621 17.0715 29.3926 11.8174 29.0719C7.19779 29.4223 10.8699 44.9983 7.73251 46.589C6.77112 47.0627 5.83466 40.7081 4.93442 33.9574C3.97217 26.7412 3.68356 21.9167 4.33191 20.9978C6.30006 22.294 6.81334 22.0678 8.78573 21.9105C12.6468 21.4851 15.5514 22.2709 18.7176 21.4405C20.6788 20.8428 20.334 27.0459 19.5305 33.8078C18.6995 40.8014 18.8264 48.1448 15.8922 49.3168L15.8921 49.3166Z" fill="#fff" stroke="#bdbdbd" stroke-width="1"/>
    <path d="M20.7398 3.36362C18.6236 1.15239 17.6827 2.31631 15.5635 1.76993C12.2495 0.915406 8.66526 1.58932 7.60523 1.83287C6.24765 2.10258 3.69324 1.33956 2.35528 4.03834C1.54667 5.6694 1.45917 8.64161 1.8484 11.9303C2.18913 14.8094 3.33941 16.342 4.15849 17.7727C4.96166 19.3108 6.79524 19.8904 8.76763 19.7331C12.6287 19.3078 15.5333 20.0935 18.6995 19.2631C20.6883 19.285 21.2285 15.9987 21.5078 12.1901C21.7864 8.39084 22.74 5.60196 20.7398 3.36263V3.36362Z" fill="#fff" stroke="#bdbdbd" stroke-width="1"/>
  </g>
</svg>
