<svg xmlns="http://www.w3.org/2000/svg" viewBox="0 0 23 51" height="51">
  <g transform="scale(-1,1) translate(-23,0)">
    <path d="M16.7851 5.98518C12.6342 10.6315 17.3179 18.8209 11.4028 24.6637C4.99576 24.4774 9.28284 3.43049 5.69131 4.38983C2.38261 4.41301 0.217635 31.4008 2.74304 29.9744C4.81256 28.0323 7.3537 27.5712 10.0851 27.2972C12.8162 27.0231 16.6037 27.6149 18.8801 29.0005C20.763 28.1432 19.3873 8.47758 16.7855 5.98518H16.7851Z" fill="#fff" stroke="#bdbdbd" stroke-width="1"/>
    <path d="M10.6782 22.2111C9.69999 21.6508 8.91257 16.622 9.17023 12.3348C9.41437 8.27265 10.4109 4.08114 12.1063 1.79875C14.6402 -0.000525475 13.4912 6.80172 13.1322 11.885C12.7831 16.8283 13.0449 20.6044 10.6782 22.2104V22.2111Z" fill="#e0e0e0"/>
    <path d="M21.1553 47.7717C19.5306 50.8225 11.2532 49.7808 9.40212 49.3551C3.32454 50.1946 1.24116 48.408 1.16431 46.0622C0.821389 41.1852 0.413882 34.0971 2.93922 32.67C5.0088 30.7279 7.44007 29.9249 10.1713 29.6508C12.9025 29.3768 14.3833 29.8547 16.0004 30.3285C17.6174 30.8023 20.4633 33.1609 21.0454 36.0329C21.6275 38.905 22.7798 44.7206 21.1552 47.7715L21.1553 47.7717Z" fill="#fff" stroke="#bdbdbd" stroke-width="1"/>
  </g>
</svg>
