<svg xmlns="http://www.w3.org/2000/svg" viewBox="0 0 21 59" height="59">
  <g transform="scale(-1,1) translate(-21,0)">
    <path d="M8.86407 57.815C5.91326 57.8342 7.85864 50.4139 6.16861 43.5012C3.86476 34.0775 2.41001 25.8277 2.77658 22.6635C4.60647 25.1358 8.61261 26.4147 10.1816 26.0744C13.6014 25.7859 17.1553 22.091 17.9437 20.6132C19.1978 21.7707 17.0221 30.8789 14.9368 39.9933C12.8906 48.9366 12.7524 57.9019 8.86363 57.8151L8.86407 57.815Z" fill="#fff" stroke="#bdbdbd" stroke-width="1"/>
    <path d="M19.379 6.20455C18.7052 4.52943 10.3482 0.299618 8.49709 0.725223C6.7689 1.17514 2.8558 4.93164 1.55521 7.55914C0.822061 15.3504 1.95442 23.3179 10.0481 23.622C13.4678 23.3335 17.9539 18.0269 18.7423 16.5489C19.643 13.6102 20.0531 7.87914 19.3794 6.20428L19.379 6.20455Z" fill="#fff" stroke="#bdbdbd" stroke-width="1"/>
  </g>
</svg>
