<svg xmlns="http://www.w3.org/2000/svg" viewBox="0 0 24 52" height="52">
  <g transform="scale(-1,1) translate(-24,0)">
    <path d="M3.63273 37.9909C4.04025 42.7101 5.11532 51.727 7.17808 50.983C11.1133 49.5645 5.61036 30.4945 11.4081 31.0609C15.6393 32.0559 11.8522 46.8866 15.726 48.739C18.3203 49.9795 19.2604 32.9445 19.728 29.6352C20.1043 26.9714 19.9457 20.1055 19.1266 21.5359C18.6553 22.2131 16.9935 22.9112 16.0708 22.6904C12.2097 22.265 10.3147 23.1313 7.14867 22.301C4.99792 21.7368 4.71602 21.9208 3.8036 20.4526C2.04864 17.5943 3.22515 33.2717 3.63266 37.9908L3.63273 37.9909Z" fill="#fff" stroke="#bdbdbd" stroke-width="1"/>
    <path d="M1.86096 2.77196C3.97719 0.560731 6.00543 1.96648 8.12471 1.42003C11.4386 0.565576 14.3239 1.23948 15.384 1.48296C16.7415 1.75267 20.4106 0.304733 21.9543 2.88254C23.462 5.40006 21.8408 7.72763 21.4515 11.0163C21.1108 13.8954 21.5915 15.4279 20.7725 16.8588C19.9693 18.3967 18.1357 20.2659 16.1633 20.1086C12.3022 19.6832 10.4072 20.5494 7.2411 19.7191C5.09036 19.155 3.48811 17.1632 2.57569 15.6948C2.14107 11.2249 -0.255138 4.98254 1.86102 2.7717L1.86096 2.77196Z" fill="#fff" stroke="#bdbdbd" stroke-width="1"/>
  </g>
</svg>
