<svg xmlns="http://www.w3.org/2000/svg" viewBox="0 0 17 52" height="52">
  <path d="M8.54492 50.3411C11.4016 50.0525 15.3629 17.6595 14.7585 19.235C14.1542 20.8101 10.4687 23.1392 8.71458 23.1194C6.96042 23.0995 3.84081 21.4573 2.48682 18.1736C3.12436 23.1364 4.7871 49.9554 8.54492 50.341V50.3411Z" fill="#fff" stroke="#bdbdbd" stroke-width="1"/>
  <path d="M1.90064 2.01118C3.03249 0.605443 14.1116 0.204616 15.104 1.6888C16.0966 3.17298 15.5529 13.8136 14.9487 15.3884C14.3444 16.9636 10.5036 20.4209 8.74951 20.401C6.99536 20.3811 3.25435 16.8994 1.90036 13.6154C0.54636 10.3317 0.768503 3.41659 1.90036 2.01138L1.90064 2.01118Z" fill="#fff" stroke="#bdbdbd" stroke-width="1"/>
</svg>
