<svg xmlns="http://www.w3.org/2000/svg" viewBox="0 0 17 51" height="51">
  <g transform="scale(-1,1) translate(-17,0)">
    <path d="M7.95137 50.1428C9.70904 49.8711 10.9583 44.2907 12.4225 37.7676C13.9978 30.7502 15.6997 22.6409 14.9416 18.8758C14.3373 20.4509 11.8945 22.2964 8.89772 22.2765C5.90087 22.2566 2.22812 19.6517 1.89354 17.7476C1.55877 15.8434 3.51765 29.824 4.93498 36.5453C6.4354 43.6608 6.04039 50.6663 7.95163 50.1436L7.95137 50.1428Z" fill="#fff" stroke="#bdbdbd" stroke-width="1"/>
    <path d="M2.85205 2.15036C3.98391 0.744684 14.1308 0.182659 15.1233 1.66684C16.1159 3.15102 15.5722 13.7917 14.968 15.3665C14.3637 16.9416 11.9209 19.7542 8.92413 19.7344C5.92735 19.7145 2.49699 16.8774 1.91994 13.5936C1.34268 10.3098 1.72012 3.5557 2.85197 2.15049L2.85205 2.15036Z" fill="#fff" stroke="#bdbdbd" stroke-width="1"/>
  </g>
</svg>
