<svg xmlns="http://www.w3.org/2000/svg" viewBox="0 0 24 52" height="52">
  <path d="M12.9215 30.5918C7.8358 30.4587 12.4802 49.3001 8.91422 49.0755C6.29871 48.9107 4.46868 21.7538 4.8923 22.9198C6.39443 24.6996 9.78146 24.1511 11.6759 23.9938C15.0956 23.3023 19.5817 24.6843 21.0691 22.0782C22.1251 20.9929 20.8265 50.3176 17.6673 50.8178C13.0616 51.5244 18.3229 30.5287 12.9211 30.591L12.9215 30.5918Z" fill="#fff" stroke="#bdbdbd" stroke-width="1"/>
  <path d="M21.6656 2.71972C18.8947 -0.00297791 15.1976 1.08588 13.3463 1.51155C11.9887 1.78126 3.4926 0.250634 2.03837 3.63645C1.20929 5.56691 1.94225 14.5932 2.36587 15.7593C3.79036 20.3595 7.09971 21.9869 9.53833 21.6684C12.9581 20.9769 20.3182 22.5201 21.8056 18.6246C22.3956 15.8471 24.4367 5.44242 21.6659 2.71946L21.6656 2.71972Z" fill="#fff" stroke="#bdbdbd" stroke-width="1"/>
</svg>
