<svg xmlns="http://www.w3.org/2000/svg" viewBox="0 0 20 53" height="53">
  <g transform="scale(-1,1) translate(-20,0)">
    <path d="M9.05998 52.2435C6.11938 52.3071 7.46297 46.7966 5.95546 38.0682C4.59941 30.2166 2.27405 21.2554 2.77181 21.4846C3.80448 23.1027 7.0907 23.8177 11.7755 23.9123C13.5642 23.6238 16.1864 21.9436 16.9748 20.4657C15.1136 26.2002 12.917 52.6828 9.05966 52.2429L9.05998 52.2435Z" fill="#fff" stroke="#bdbdbd" stroke-width="1"/>
    <path d="M17.8566 5.25748C16.7169 3.58236 10.6895 0.480775 8.83839 0.906379C7.11027 1.3563 2.03228 3.82339 1.04248 5.24225C0.547903 6.98369 0.749721 16.1222 1.77378 17.7493C3.35012 20.2539 6.94709 21.4523 11.6321 21.547C13.4209 21.2585 16.8973 18.2889 17.6858 16.811C18.5087 14.7587 18.9965 6.93274 17.8567 5.25789L17.8566 5.25748Z" fill="#fff" stroke="#bdbdbd" stroke-width="1"/>
  </g>
</svg>
