<svg xmlns="http://www.w3.org/2000/svg" viewBox="0 0 22 62" height="62">
  <g transform="scale(-1,1) translate(-22,0)">
    <path d="M11.0857 1.68847C5.80518 1.26724 6.33213 26.327 4.39551 36.7332C4.18549 37.8617 5.54108 34.7112 10.6466 34.4088C10.6466 34.4088 15.5177 34.3843 17.6839 37.2519C17.3206 26.2169 13.1729 3.24196 11.0858 1.68834L11.0857 1.68847Z" fill="#fff" stroke="#bdbdbd" stroke-width="1"/>
    <path d="M11.7313 61.1831C8.50955 60.4271 2.03259 55.2214 1.62647 52.9897C0.836145 50.9927 2.30717 43.2989 3.84064 40.9655C6.34962 36.9721 11.0727 37.0346 11.0727 37.0346C11.0727 37.0346 15.2847 37.1245 17.451 39.9916C19.6173 42.8587 20.9254 50.1176 20.0796 52.4198C19.1533 55.7905 16.5585 59.4359 11.7318 61.183L11.7313 61.1831Z" fill="#fff" stroke="#bdbdbd" stroke-width="1"/>
  </g>
</svg>
