<svg xmlns="http://www.w3.org/2000/svg" viewBox="0 0 20 54" height="54">
  <path d="M14.2192 2.61953C12.1103 5.50713 5.90854 24.17 2.68604 32.3767C3.40606 31.1992 6.29239 29.7937 10.0453 29.9834C10.0453 29.9834 14.9164 29.8453 16.3138 32.2566C15.2205 25.161 16.8325 -1.83083 14.2191 2.61933L14.2192 2.61953Z" fill="#fff" stroke="#bdbdbd" stroke-width="1"/>
  <path d="M6.88066 2.62537C8.00105 4.60127 8.82054 6.85292 9.07733 8.67764C8.46284 11.0976 6.95345 14.7461 5.00563 19.9544C4.45137 15.4802 4.48684 1.02418 6.88066 2.6255V2.62537Z" fill="#e0e0e0"/>
  <path d="M9.90949 53.3085C7.56648 53.3502 1.82009 48.0544 1.34175 46.8245C0.864072 45.5946 1.05313 43.1882 1.12634 41.4217C1.19962 39.6552 1.83001 36.0355 2.54997 34.858C3.27 33.6805 6.15636 32.275 9.90929 32.4647C9.90929 32.4647 14.7803 32.3266 16.1777 34.7379C17.5751 37.1491 19.5422 45.5483 18.9161 47.8505C17.4602 50.2543 13.1371 52.2994 9.90912 53.3088L9.90949 53.3085Z" fill="#fff" stroke="#bdbdbd" stroke-width="1"/>
</svg>
