<svg xmlns="http://www.w3.org/2000/svg" viewBox="0 0 23 56" height="56">
  <path d="M10.7383 0.883218C6.25275 0.809214 9.13829 15.256 4.93433 28.8734C8.87117 26.7034 10.7384 27.7917 10.7384 27.7917C10.7384 27.7917 16.1587 27.3117 19.4234 32.3442C16.1028 21.5517 14.4413 1.58132 10.7384 0.88368L10.7383 0.883218Z" fill="#fff" stroke="#bdbdbd" stroke-width="1"/>
  <path d="M20.3434 53.3892C19.0483 55.8701 12.089 54.9425 10.2379 54.5168C4.1604 55.3563 0.868525 54.8233 1.12161 48.4887L1.01176 41.4229C1.01176 41.4229 0.607168 33.7336 4.544 31.5639C8.48084 29.3938 10.3482 30.4821 10.3482 30.4821C10.3482 30.4821 15.7684 30.0021 19.0331 35.0346C22.2978 40.0671 22.0681 44.135 21.8813 47.235C21.6946 50.3349 21.6387 50.9082 20.3436 53.3891L20.3434 53.3892Z" fill="#fff" stroke="#bdbdbd" stroke-width="1"/>
</svg>
