<svg xmlns="http://www.w3.org/2000/svg" viewBox="0 0 27 27" width="27" height="27">
  <path d="M8.58244 18.2344C6.27799 20.5112 5.03609 21.7531 2.71097 24.0989C-0.683593 20.7182 2.02103 13.9564 2.02103 13.4045C2.02103 12.7836 -0.683593 6.09093 2.71097 2.71008L8.57557 8.58155V18.2411L8.58244 18.2344Z" fill="#fff" stroke="#bdbdbd" stroke-width="1"/>
  <path d="M18.2446 8.57504C20.5491 6.27059 21.7841 5.05632 24.1092 2.72424C27.5038 6.11881 24.7991 12.8668 24.7991 13.4187C24.7992 13.9962 27.5038 20.7323 24.1092 24.1131L18.2446 18.2416V8.58207V8.57504Z" fill="#fff" stroke="#bdbdbd" stroke-width="1"/>
  <path d="M8.58374 8.57568V18.2353H18.2433V8.57568H8.58374Z" fill="#fff" stroke="#bdbdbd" stroke-width="1"/>
  <path d="M8.5815 8.57556C6.27705 6.278 5.05583 5.0361 2.73071 2.71098C6.12528 -0.683584 12.8733 2.02103 13.4251 2.02103C14.0026 2.02101 20.7387 -0.683584 24.1196 2.71098C21.9669 4.86365 20.656 6.16762 18.2481 8.57556H8.58854H8.5815Z" fill="#fff" stroke="#bdbdbd" stroke-width="1"/>
  <path d="M18.2439 18.2354L24.0947 24.0999C20.7001 27.4945 13.9521 24.7899 13.4002 24.7899C12.8228 24.7899 6.08666 27.4945 2.70581 24.0999C4.85848 21.9473 6.16935 20.6433 8.57728 18.2354H18.2368H18.2439Z" fill="#fff" stroke="#bdbdbd" stroke-width="1"/>
</svg>
